<svg xmlns="http://www.w3.org/2000/svg" viewBox="0 0 361.73 361.79"><path d="M316.27,8.2c-14.9-9.5-30.4-10.9-46.5-3.4-5.4,2.5-9.8,6.3-13.9,10.6-2,2.1-4.1,4-6.2,5.9a2.76,2.76,0,0,1-1.5,1.5c-6.8,6.9-13.6,13.8-20.4,20.6a5,5,0,0,1-1.3.6l-1.4,1.4a156.24,156.24,0,0,1-21.89,21.9l-.61.6c-.19.5-.19,1-.6,1.3-7.1,7-13.9,14.4-21.4,21.1q-10.78,11.7-22.5,22.5c-6.8,7-13.69,14-20.5,20.9a12.13,12.13,0,0,1-1.89,1.1l-.61.6c-.19.5-.19,1-.5,1.3-7.1,7.1-14.3,14.1-21.4,21.2l-.7.7-20.9,21.2c-.4.4-1.1.5-1.6.8l-.59.6c-.1,1.3-1,1.9-1.81,2.7l-17.4,17.4c-.8.8-1.5,1.7-2.7,1.8l-.59.6a3.88,3.88,0,0,1-1.5,2.4L47.47,224c-.7.7-1.3,1.5-2.5,1.5l-.59.6a6.77,6.77,0,0,1-.5,1.4c-7.1,7.1-14.3,14.1-21.4,21.1a68.62,68.62,0,0,1-5.1,5.4c-5.5,4.7-10.11,9.8-9.61,17.8a214.89,214.89,0,0,1-2.59,22.5c-.41,7.5-1.41,15-2.41,22.5a136.81,136.81,0,0,1-1.9,15.8,25.46,25.46,0,0,1-.7,6.7c-.1,3.5-.5,7,.41,10.5,4.19,9.3,10.3,12.9,20.49,11.8,14.5-1.6,28.9-3.3,43.4-4.9,1-.1,2-.1,3-.1A212.35,212.35,0,0,1,90,354.1c9.5.8,14.41-6.2,20.1-11.9.5-.5,1.1-.9,1.7-1.4a2.76,2.76,0,0,1,1.5-1.5c6.9-7.5,14.2-14.7,21.7-21.7l.8-.8c7.2-7.8,14.7-15.3,22.4-22.5l.8-.8c7.2-7.3,14.4-14.6,21.7-21.9a2.12,2.12,0,0,1,1.5-1.4c7-7,14-14.1,21-21.1a2.12,2.12,0,0,1,1.5-1.4c7.1-7.4,14.2-14.7,21.8-21.7h0q10.8-11.7,22.5-22.5,10.82-11.7,22.5-22.5c7.1-7.9,14.9-15.2,22.4-22.7a5,5,0,0,0,.8-.7c7.2-7.3,14.5-14.6,21.7-21.8a2.32,2.32,0,0,1,1.5-1.4c7-7,14-14,21-21.1a2.32,2.32,0,0,1,1.5-1.4c1.2-1.3,2.3-2.5,3.6-3.8,4.1-4.1,8.3-8.1,11.4-13.2,5.1-8.4,6.7-17.5,6.3-27.1-.1-1.6-.2-3.2-.2-4.8-2.3-6.1-4.3-12.2-8-17.7-4.3-5.6-9.9-10.1-14.5-15.4a51.45,51.45,0,0,1-7-7C326.37,18.2,322,12.6,316.27,8.2ZM135.87,283.9a100.16,100.16,0,0,1-10.3,10.3,3.43,3.43,0,0,1-2.8,2.2V277.8c0-4.9,0-4.9-4.8-4.9-8.5,0-17-.1-25.5,0-2.7.1-3.7-.6-3.6-3.5.2-8.9-.1-17.7.1-26.6.1-3.2-1-4.1-4-4-6.6.2-13.1.1-20.1.1a5.81,5.81,0,0,1,2.5-2.8,149.27,149.27,0,0,1,11.2-11.3,99.6,99.6,0,0,1,11.3-11.2c3.7-3.8,7.5-7.5,11.2-11.3l12-12,10.5-10.5q5.7-6.3,12-12a108.72,108.72,0,0,1,9.6-9.6,130.9,130.9,0,0,1,12.9-12.9,149.27,149.27,0,0,1,11.2-11.3,119.46,119.46,0,0,1,11.3-11.2,149.27,149.27,0,0,1,11.2-11.3,119.46,119.46,0,0,1,11.3-11.2A100.16,100.16,0,0,1,213.37,90c2-2.9,4.9-4.9,7.1-7.6,1.6-1.9,2.6-1.8,4.4,0,8.2,8.4,16.5,16.6,24.8,24.9,9.8,9.8,19.6,19.6,29.3,29.4.9.9,2.8,1.8.8,3.5-2.9,2.6-5.2,5.7-8.4,7.9a112.4,112.4,0,0,1-10.3,10.4A92.22,92.22,0,0,1,249,170.6a112.28,112.28,0,0,1-10.3,10.4,92.22,92.22,0,0,1-12.1,12.1,112.28,112.28,0,0,1-10.3,10.4,120.86,120.86,0,0,1-12.9,12.9,96.66,96.66,0,0,1-9.6,9.6,112.25,112.25,0,0,1-12.9,12.9,108.72,108.72,0,0,1-9.6,9.6,130.9,130.9,0,0,1-12.9,12.9,100.16,100.16,0,0,1-10.3,10.3A108.11,108.11,0,0,1,135.87,283.9Zm-45.8,45.8a2.69,2.69,0,0,1-2.4,1.4c-6.7.7-13.4,1.9-20.2,2-5.1,1.3-10.4,1.1-15.5,2.1-3.7.8-6.6-.3-8.4-3.7a157.46,157.46,0,0,1-13.5-13.6c-1.7-1.4-4-2.5-3.8-5.1a148.47,148.47,0,0,1,2.3-18.8l.3-4.5a2.41,2.41,0,0,1,.4-2.3c.1-1.5.3-3,.4-4.5a2.41,2.41,0,0,1,.4-2.3c.1-1.5.3-3,.4-4.5a2.18,2.18,0,0,1,.4-2.3,2,2,0,0,1,1.2-2.4,151,151,0,0,1,12-12c.8-1.4,2.1-1.1,3.3-1.1,6,0,12,.1,17.9-.1,2.8-.1,3.9.7,3.8,3.8-.2,9,.1,17.9-.1,26.9-.1,2.9.9,3.5,3.6,3.5,9.1-.2,18.2,0,27.3-.1,1.7,0,3.2-.1,3.1,2.4-.2,7.2-.2,14.4-.3,21.7C99.37,321.7,94.57,325.5,90.07,329.7ZM271.27,32.2c6-7,13.2-10.8,22.7-9.1a19.2,19.2,0,0,1,10,4.6c10.6,9.7,20.71,19.9,30.4,30.4a15.68,15.68,0,0,1,4,9.5c2,9.6-2,16.8-9.1,22.7-4.1,4.5-8.3,8.8-12.8,12.9a79.13,79.13,0,0,1-9.6,9.6c-2.5,2.6-5.1,5.1-7.5,7.8-1.7,1.9-2.8,2-4.7.1-8-8.2-16.2-16.2-24.3-24.3-9.8-9.8-19.5-19.6-29.4-29.3-2.2-2.1-2-3.4.1-5.2,2.61-2.3,5.11-4.8,7.61-7.2a66.34,66.34,0,0,1,9.6-9.5A131.74,131.74,0,0,1,271.27,32.2Z"/></svg>