<?xml version="1.0" encoding="utf-8"?>
<!-- Generator: Adobe Illustrator 23.0.5, SVG Export Plug-In . SVG Version: 6.00 Build 0)  -->
<svg version="1.1" id="Layer_1" xmlns="http://www.w3.org/2000/svg" xmlns:xlink="http://www.w3.org/1999/xlink" x="0px" y="0px"
	 viewBox="0 0 25.8 24" enable-background="new 0 0 25.8 24" xml:space="preserve">
<path fill="#DC3645" d="M17.9,12.4c-0.3-0.3-0.3-0.5,0-0.8c2.1-2.1,4.3-4.3,6.4-6.4c0.7-0.7,0.7-1,0-1.7c-0.9-1.1-2-2-3-3
	c-0.6-0.6-1-0.6-1.7,0c-2.1,2.1-4.2,4.2-6.2,6.2C13.2,7,13,7.2,12.9,7.2c-0.1,0-0.3-0.2-0.6-0.5c-2.1-2.1-4.1-4.2-6.2-6.2
	c-0.6-0.6-1-0.6-1.7,0c-1,1-2.1,1.9-3,3c-0.6,0.7-0.7,1,0,1.7c2.1,2.1,4.3,4.3,6.4,6.4c0.3,0.3,0.3,0.5,0,0.8
	c-2.1,2.1-4.2,4.2-6.3,6.3c-0.8,0.8-0.8,1.2,0,2c0.1,0.1,0.2,0.2,0.3,0.3c0.8,0.9,1.8,1.6,2.5,2.6c0.2,0,0.3,0.1,0.3,0.3
	c0.1,0,0.2,0,0.3,0.1c0.5,0,0.9-0.2,1.3-0.6c2.1-2.1,4.2-4.2,6.2-6.3c0.2-0.2,0.3-0.3,0.5-0.3c0.1,0,0.3,0.1,0.5,0.3
	c2.1,2.1,4.2,4.2,6.2,6.3c0.4,0.4,0.7,0.6,1.3,0.6c0.1-0.1,0.2-0.2,0.3-0.1c0.1-0.2,0.2-0.2,0.3-0.3c0.7-1,1.7-1.7,2.5-2.6
	c0.1-0.1,0.2-0.2,0.3-0.3c0.8-0.8,0.8-1.2,0-2C22.1,16.6,20,14.5,17.9,12.4z"/>
</svg>
