<svg fill="" xmlns="http://www.w3.org/2000/svg" viewBox="0 0 234.75 631.1"><title>Men</title><g id="Layer_2" data-name="Layer 2"><g id="Layer_1-2" data-name="Layer 1"><path d="M103.94,364.56h26.72v4.8q0,116.28.07,232.58a58,58,0,0,0,1.57,13.7c1.7,6.91,6.39,11.53,13.19,13.67a35.31,35.31,0,0,0,22.84-.21c10-3.52,13.79-11.6,14.08-21.38.41-13.86.23-27.75.23-41.63q0-182.31,0-364.62v-5.53h12.64v4.64q0,69.58,0,139.17a56,56,0,0,0,.58,8.59c1.63,10.49,9.79,18.07,19,17.85,9.57-.21,18.1-8.38,19.39-18.66a60.42,60.42,0,0,0,.44-7.48q0-76.91-.06-153.8a73.12,73.12,0,0,0-1.8-17.1c-4.61-18.93-17.74-29.79-35.75-34.72a104.73,104.73,0,0,0-26.24-3.59c-35.36-.38-70.73-.22-106.09-.08-15.06.05-29.58,2.7-42.84,10.41C8,149.29,1.17,161.7.27,177.5-.14,184.6,0,191.75,0,198.87q0,75.78,0,151.56c0,7.49,2.44,13.43,9.2,17.17,7.1,3.92,14.23,4.3,21.38.1C37,364,39.4,358.18,39.39,351q-.06-33,0-66l0-85.9c0-1,.1-2,.17-3.23H51.87c.06,1.41.17,2.74.17,4.08Q52,401.76,52,603.58c0,20.63,11.62,29.55,31.69,26.94,12.74-1.66,19.32-9.28,20.13-22.17.16-2.62.16-5.25.16-7.88q0-115.35,0-230.7Z"/><path d="M170,53.48C170,24,145.83,0,116.11,0a54,54,0,1,0,.15,107.92C146.29,107.84,170,83.85,170,53.48Z"/></g></g></svg>