<?xml version="1.0" encoding="utf-8"?>
<!-- Generator: Adobe Illustrator 23.0.5, SVG Export Plug-In . SVG Version: 6.00 Build 0)  -->
<svg version="1.1" id="Layer_1" xmlns="http://www.w3.org/2000/svg" xmlns:xlink="http://www.w3.org/1999/xlink" x="0px" y="0px"
	 viewBox="0 0 29.5 24" enable-background="new 0 0 29.5 24" xml:space="preserve">
<g>
	<path fill="#27A74A" d="M0.7,15.2c0,0-0.1-0.1-0.1-0.1l0,0C-1.5,12.9,2.9,17.3,0.7,15.2z"/>
	<path fill="#27A74A" d="M29,3.5c-0.9-1.1-2-2-3-3c-0.6-0.6-1-0.6-1.7,0L9.9,15l-4.5-4.6c-0.6-0.6-1-0.6-1.7,0c-1,1-2.1,1.9-3,3
		c-0.6,0.7-0.6,1-0.1,1.6l4.7,4.7c0.3,0.3,0.5,0.5,0.7,0.8c0.1,0.1,0.1,0.1,0.2,0.2c0.1,0.1,0.2,0.2,0.3,0.3
		c0.4,0.4,0.8,0.8,1.2,1.2c0.2,0.2,0.5,0.5,0.9,0.9c0.2,0.2,0.3,0.3,0.4,0.5c0.2,0,0.3,0.1,0.3,0.3c0.1,0,0.2,0,0.3,0.1
		c0.1,0,0.2,0,0.3,0c0.1,0,0.2,0,0.3,0c0.1-0.1,0.2-0.2,0.3-0.1c0.1-0.2,0.2-0.2,0.3-0.3c0.1-0.2,0.3-0.3,0.4-0.5
		c0.3-0.3,0.6-0.6,0.9-1c0.4-0.4,0.8-0.7,1.1-1.1c0.1-0.1,0.2-0.2,0.3-0.3c0,0,0.1-0.1,0.1-0.1c1.2-1.2,2.3-2.3,3.5-3.5l5.5-5.5
		c2.1-2.1,4.3-4.3,6.4-6.4C29.7,4.5,29.7,4.2,29,3.5z"/>
</g>
</svg>
