<svg fill="" xmlns="http://www.w3.org/2000/svg" viewBox="0 0 312.15 630.99"><title>Women</title><g id="Layer_2" data-name="Layer 2"><g id="Layer_1-2" data-name="Layer 1"><path d="M90.85,441.85v7.56c0,51.52.13,103-.11,154.56-.07,15.34,13.16,25.86,24.36,26.91,14.75,1.38,27.7-10.49,27.8-25.87.14-23.25,0-46.51,0-69.77V439.58c0-5.16.14-5.54,5.4-5.82,5.47-.28,11-.07,16.46,0,3.53,0,4.8,1.6,4.79,5.35q-.18,82,0,163.93c0,12.53,7.54,23.29,18.51,26.81,15.06,4.84,31.74-6.41,33.24-22.46.19-2.11.21-4.24.21-6.37q0-76.89,0-153.8v-5.33h4.38c14.37,0,28.74.15,43.11-.17a13.55,13.55,0,0,0,7.94-3.22c5.44-4.73,8.64-10.47,8.24-18.34-.34-6.8-1.11-13.23-3.47-19.7Q246.23,302.83,211,205.12c-.72-2-1.42-4-2.31-5.93-1.68-3.63-.82-6.87,2.3-8.18,3.6-1.51,6.29-.21,7.87,3.89q6.32,16.46,12.59,32.92,19.48,50.94,39,101.9c4,10.4,12.39,14.21,22.51,15.32,10.62,1.17,14.09-1.35,17.09-11.65.07-.24.12-.49.2-.72,3.07-8.37,2.24-16.12-1.3-24.53-16.27-38.71-31.91-77.69-47.7-116.59a44.44,44.44,0,0,1-2.11-7.92c-4.59-23-19.3-37.48-39.78-46.95-9.33-4.31-19.35-5.87-29.55-5.92-22.37-.11-44.74,0-67.11,0-36.74,0-62.7,26.39-70,47.67-6.89,19.95-13.91,39.86-21.2,59.66C21.36,265.5,11,292.84.68,320.21c-2.42,6.45,1.94,20.09,7.79,23.61a10.16,10.16,0,0,0,5.3,1.44,88.4,88.4,0,0,0,13-1.21c7.86-1.44,12.85-5.91,15.71-13.75C58.57,286.16,75,242.13,91.31,198.07c.3-.82.56-1.67.92-2.46,1.41-3.18,3.87-4.4,6.93-3.48,2.59.77,3.9,3.45,2.86,6.8-1.53,4.89-3.36,9.68-5.07,14.51C74.21,277.77,51.31,342,29,406.51c-2.18,6.3-1.82,13.91-.93,20.68.46,3.47,4.65,6.49,7.29,9.6,3.27,3.86,7.36,5.29,12.58,5.17C62,441.62,76.11,441.85,90.85,441.85Z"/><path d="M155,0a53.65,53.65,0,0,0-53.83,54.19A53.93,53.93,0,1,0,155,0Z"/></g></g></svg>